<svg xmlns="http://www.w3.org/2000/svg" width="16" height="16" viewBox="0 0 16 16" fill="#7A45E5"><path fill-rule="evenodd" clip-rule="evenodd" d="m4.38 1.061.327.22c.554.375 1.062.988 1.46 1.648.404.667.73 1.439.89 2.18l.06.278-.805 1.187c.152.303.369.621.605.921.31.39.619.71.777.868.16.16.477.47.866.778.298.236.614.452.917.603l1.194-.828.287.066c.736.17 1.506.5 2.172.906.658.4 1.271.908 1.645 1.462l.221.327-.18.351c-.367.71-.97 1.487-1.551 2.09-.406.42-.992.618-1.572.526-2.52-.4-4.823-1.866-6.607-3.682C3.312 9.156 1.852 6.887 1.422 4.38c-.1-.586.096-1.182.523-1.595.6-.58 1.376-1.18 2.085-1.544l.35-.18ZM4.269 2.64A8.928 8.928 0 0 0 2.87 3.745a.46.46 0 0 0-.135.41c.369 2.152 1.645 4.186 3.302 5.873 1.651 1.68 3.709 2.957 5.864 3.3a.46.46 0 0 0 .404-.136c.41-.426.816-.933 1.111-1.404a4.936 4.936 0 0 0-.98-.761c-.474-.288-1-.526-1.5-.673l-1.28.888-.321-.112c-.596-.208-1.164-.595-1.604-.944a11.575 11.575 0 0 1-.98-.88 11.55 11.55 0 0 1-.88-.984c-.348-.44-.734-1.008-.944-1.598l-.113-.318.872-1.286a6.23 6.23 0 0 0-.66-1.502 4.874 4.874 0 0 0-.76-.979Z"/></svg>
